HIERARCHY
ROOT Hips
{
    OFFSET 0.000000 0.000000 0.000000
    CHANNELS 6 Xposition Yposition Zposition Zrotation Xrotation Yrotation
    JOINT Spine
    {
        OFFSET -0.000000 7.236184 0.000000
        CHANNELS 3 Zrotation Xrotation Yrotation
        JOINT Spine1
        {
            OFFSET -0.000000 20.420147 0.000000
            CHANNELS 3 Zrotation Xrotation Yrotation
            JOINT Neck
            {
                OFFSET -0.000000 20.336288 1.848754
                CHANNELS 3 Zrotation Xrotation Yrotation
                JOINT Head
                {
                    OFFSET -0.000000 12.354461 -1.764923
                    CHANNELS 3 Zrotation Xrotation Yrotation
                    End Site
                    {
                        OFFSET -0.000000 22.061537 0.000000
                    }
                }
            }
            JOINT LeftShoulder
            {
                OFFSET 3.573296 18.396038 -0.314103
                CHANNELS 3 Zrotation Xrotation Yrotation
                JOINT LeftArm
                {
                    OFFSET 10.880760 0.000000 0.000000
                    CHANNELS 3 Zrotation Xrotation Yrotation
                    JOINT LeftForeArm
                    {
                        OFFSET 27.185530 0.000000 0.000000
                        CHANNELS 3 Zrotation Xrotation Yrotation
                        JOINT LeftHand
                        {
                            OFFSET 27.825975 0.000000 0.000000
                            CHANNELS 3 Zrotation Xrotation Yrotation
                            End Site
                            {
                                OFFSET 13.236923 0.000000 0.000000
                            }
                        }
                    }
                }
            }
            JOINT RightShoulder
            {
                OFFSET -3.474926 18.396038 -0.314103
                CHANNELS 3 Zrotation Xrotation Yrotation
                JOINT RightArm
                {
                    OFFSET -10.880760 0.000000 0.000000
                    CHANNELS 3 Zrotation Xrotation Yrotation
                    JOINT RightForeArm
                    {
                        OFFSET -27.185530 0.000000 0.000000
                        CHANNELS 3 Zrotation Xrotation Yrotation
                        JOINT RightHand
                        {
                            OFFSET -27.825975 0.000000 0.000000
                            CHANNELS 3 Zrotation Xrotation Yrotation
                            End Site
                            {
                                OFFSET -13.236923 0.000000 0.000000
                            }
                        }
                    }
                }
            }
        }
    }
    JOINT LeftUpLeg
    {
        OFFSET 8.824615 0.000000 0.000000
        CHANNELS 3 Zrotation Xrotation Yrotation
        JOINT LeftLeg
        {
            OFFSET -0.000000 -35.111282 0.000000
            CHANNELS 3 Zrotation Xrotation Yrotation
            JOINT LeftFoot
            {
                OFFSET -0.000000 -42.324711 0.000000
                CHANNELS 3 Zrotation Xrotation Yrotation
                JOINT LeftToeBase
                {
                    OFFSET -0.000000 -5.735999 13.236923
                    CHANNELS 3 Zrotation Xrotation Yrotation
                    End Site
                    {
                        OFFSET -0.000000 0.000000 3.529846
                    }
                }
            }
        }
    }
    JOINT RightUpLeg
    {
        OFFSET -8.824615 0.000000 0.000000
        CHANNELS 3 Zrotation Xrotation Yrotation
        JOINT RightLeg
        {
            OFFSET -0.000000 -35.111282 0.000000
            CHANNELS 3 Zrotation Xrotation Yrotation
            JOINT RightFoot
            {
                OFFSET -0.000000 -42.324711 0.000000
                CHANNELS 3 Zrotation Xrotation Yrotation
                JOINT RightToeBase
                {
                    OFFSET -0.000000 -5.735999 13.236923
                    CHANNELS 3 Zrotation Xrotation Yrotation
                    End Site
                    {
                        OFFSET -0.000000 0.000000 3.529846
                    }
                }
            }
        }
    }
}
MOTION
Frames:    7
Frame Time:    0.008333
-8.029650    83.467422    102.615784    -0.979579    -7.460191    -176.811630    -3.222134    -10.848098    -0.111681    2.036309    2.405550    0.151482    3.133419    10.033208    -1.558128    4.200567    4.049093    -1.350417    21.192703    -7.934218    -5.444687    -16.168959    -8.260453    -15.048127    16.538321    -14.571777    -13.073228    6.176100    -12.864918    -2.806917    -14.060254    2.332169    -3.792848    6.577650    -8.878452    4.958483    -22.780045    -10.908524    51.430946    21.663284    0.518195    1.778626    2.706029    -7.731701    -0.303908    -0.134122    14.322412    9.946102    -7.674388    -9.037909    -12.992508    -0.148641    -1.274951    0.165146    -10.994140    -5.205832    -4.873952    1.876348    10.410995    0.986718    7.638959    -3.515793    -9.024828    -1.496667    -3.053214    1.625724    
-7.867838    83.466324    102.597214    -0.989475    -7.433657    -177.137329    -3.531460    -10.809931    -0.521893    2.111029    2.324134    -0.230764    3.351712    10.276070    -1.160198    4.148059    4.054398    -0.947162    21.326220    -8.544579    -5.763785    -16.290077    -9.674590    -16.045443    17.786545    -17.084726    -14.410838    6.464703    -14.998013    -1.697565    -13.641009    2.752721    -3.955514    6.985762    -8.377686    4.539207    -21.837589    -10.267404    51.354057    22.015402    0.619393    1.457731    2.839288    -7.619309    -0.149047    -0.143130    14.268838    10.134998    -7.799738    -9.014230    -13.033508    -0.156714    -1.296867    0.174122    -10.857324    -5.209525    -4.623108    1.886172    10.319034    0.989854    7.532213    -3.574224    -8.997375    -1.532389    -2.976122    1.664339    
-7.703634    83.462952    102.582130    -0.994970    -7.410242    -177.462967    -3.826539    -10.767261    -0.926621    2.171984    2.244777    -0.608417    3.567839    10.499575    -0.767733    4.100896    4.076878    -0.549186    21.403603    -9.107616    -6.117023    -16.493633    -11.036281    -17.121140    19.023958    -19.667051    -15.860234    6.775721    -17.158646    -0.525657    -13.196588    3.179330    -4.142056    7.442069    -7.864909    4.158960    -20.902319    -9.690157    51.290943    22.304531    0.671002    1.181693    2.979215    -7.517465    0.006563    -0.154285    14.227366    10.316762    -7.924232    -8.994416    -13.068439    -0.162859    -1.316521    0.180957    -10.715198    -5.224031    -4.373060    1.895560    10.239358    0.996780    7.421784    -3.642454    -8.974539    -1.570933    -2.897915    1.706009    
-7.537642    83.457695    102.570572    -0.996620    -7.389636    -177.789413    -4.106668    -10.719565    -1.324941    2.219384    2.169176    -0.981586    3.783746    10.696386    -0.379106    4.053887    4.122604    -0.155925    21.422794    -9.612424    -6.501966    -16.776564    -12.342482    -18.275063    20.237864    -22.272556    -17.414549    7.114930    -19.304693    0.676472    -12.731117    3.609248    -4.354126    7.945717    -7.326534    3.819734    -19.996155    -9.177513    51.243103    22.520508    0.683978    0.951706    3.124624    -7.426035    0.161165    -0.167350    14.198382    10.494842    -8.047114    -8.977859    -13.098832    -0.167188    -1.333595    0.185772    -10.568705    -5.251025    -4.129489    1.903541    10.175376    1.013039    7.308121    -3.720897    -8.955312    -1.612462    -2.818060    1.750905    
-7.369541    83.450935    102.562309    -0.995031    -7.370790    -178.119629    -4.371601    -10.665714    -1.719136    2.250525    2.099451    -1.352134    4.006428    10.860845    0.010406    3.999710    4.196803    0.235764    21.385889    -10.054378    -6.917147    -17.138622    -13.598133    -19.510559    21.419916    -24.872175    -19.080729    7.491799    -21.408602    1.888027    -12.242312    4.040507    -4.592140    8.497576    -6.746161    3.520264    -19.134895    -8.727432    51.212109    22.657084    0.668872    0.765913    3.275034    -7.343505    0.314999    -0.181692    14.182069    10.672690    -8.168736    -8.963785    -13.126626    -0.169854    -1.348375    0.188740    -10.417919    -5.290986    -3.893267    1.909876    10.128876    1.041986    7.190740    -3.810108    -8.939504    -1.657146    -2.736491    1.799214    
-7.200511    83.443062    102.557304    -0.991199    -7.353358    -178.453888    -4.619123    -10.605036    -2.107649    2.262424    2.036695    -1.718953    4.240407    10.986628    0.402033    3.932610    4.304782    0.625820    21.296755    -10.426497    -7.358089    -17.577890    -14.797946    -20.816542    22.549179    -27.418766    -20.855852    7.913014    -23.428360    3.083596    -11.732232    4.467881    -4.852589    9.093387    -6.113940    3.261428    -18.338957    -8.342073    51.200432    22.709267    0.633398    0.621821    3.428561    -7.269309    0.465699    -0.197574    14.178064    10.853351    -8.287934    -8.951428    -13.152986    -0.171143    -1.360285    0.190176    -10.264582    -5.344433    -3.665574    1.914417    10.101467    1.085397    7.070158    -3.909553    -8.927416    -1.704665    -2.653217    1.850583    
-7.029675    83.434235    102.555420    -0.986405    -7.337217    -178.796921    -4.852064    -10.537543    -2.493782    2.256189    1.982378    -2.085123    4.489380    11.070475    0.801657    3.847795    4.450946    1.018957    21.156496    -10.730524    -7.826496    -18.096893    -15.950867    -22.193998    23.613028    -29.903599    -22.763403    8.385263    -25.354321    4.255975    -11.198871    4.891074    -5.133892    9.735130    -5.416803    3.039802    -17.613148    -8.017716    51.210430    22.677170    0.582282    0.512410    3.584690    -7.202253    0.614745    -0.214594    14.186024    11.040165    -8.404957    -8.940152    -13.179391    -0.171510    -1.368340    0.190587    -10.108868    -5.412652    -3.444146    1.917273    10.093648    1.144740    6.945168    -4.019333    -8.918931    -1.754977    -2.567037    1.904965    
